<?xml version="1.0" encoding="UTF-8"?>
<svg width="32" height="32" viewBox="0 0 32 32" fill="none" xmlns="http://www.w3.org/2000/svg">
  <!-- Simple monochrome design optimized for system tray -->
  <defs>
    <!-- Template for both light and dark themes -->
    <g id="trayIcon">
      <!-- Outer circle -->
      <circle cx="16" cy="16" r="14" fill="currentColor" opacity="0.9"/>
      
      <!-- Inner content -->
      <g transform="translate(16, 16)">
        <!-- Simple SH monogram -->
        <g transform="translate(-6, 2)">
          <!-- S -->
          <path d="M 0 -6 
                   C 0 -6, 4 -6, 4 -4
                   C 4 -2, 0 -2, 0 -2
                   C 0 -2, 4 -2, 4 0
                   C 4 2, 0 2, 0 2"
                stroke="white" 
                stroke-width="1.5" 
                fill="none" 
                stroke-linecap="round"/>
          
          <!-- H -->
          <g transform="translate(6, 0)">
            <path d="M 1 -6 L 1 2 M 5 -6 L 5 2 M 1 -2 L 5 -2"
                  stroke="white" 
                  stroke-width="1.5" 
                  fill="none" 
                  stroke-linecap="round"/>
          </g>
        </g>
        
        <!-- Minimal neural network indicator -->
        <g opacity="0.7">
          <circle cx="-8" cy="-8" r="1" fill="white"/>
          <circle cx="8" cy="-8" r="1" fill="white"/>
          <circle cx="-8" cy="8" r="1" fill="white"/>
          <circle cx="8" cy="8" r="1" fill="white"/>
          
          <!-- Connection lines -->
          <path d="M -8 -8 L 0 0 L 8 -8" stroke="white" stroke-width="0.5" opacity="0.5"/>
          <path d="M -8 8 L 0 0 L 8 8" stroke="white" stroke-width="0.5" opacity="0.5"/>
        </g>
      </g>
    </g>
  </defs>
  
  <!-- Main icon -->
  <use href="#trayIcon" color="#1a365d"/>
</svg>